<svg version="1.1" id="Layer_1" xmlns="http://www.w3.org/2000/svg" xmlns:xlink="http://www.w3.org/1999/xlink" x="0px" y="0px"
	 width="100%" viewBox="0 0 512 512" enable-background="new 0 0 512 512" xml:space="preserve">
<path fill="#000000" opacity="1.000000" stroke="none" 
	d="
M1.000000,435.000000 
	C1.000000,336.312439 1.000000,237.624878 1.462638,138.468811 
	C172.283524,138.000198 342.641754,138.000092 513.000000,138.000000 
	C513.000000,236.687561 513.000000,335.375122 512.531372,434.531403 
	C341.708466,435.000092 171.354233,435.000031 1.000000,435.000000 
M63.504078,164.999863 
	C58.412205,164.999863 53.320328,164.999863 48.404404,164.999863 
	C48.404404,246.759247 48.404404,327.800781 48.404404,408.719360 
	C96.403908,408.719360 143.998672,408.719360 191.999283,408.719360 
	C191.999283,406.654694 191.999283,404.854370 191.999283,403.054016 
	C191.999405,361.728607 192.176682,320.401764 191.837753,279.079163 
	C191.776093,271.562775 198.613800,264.756775 206.045197,264.837372 
	C240.034668,265.206116 274.032501,265.199524 308.022156,264.839294 
	C315.261627,264.762543 322.229279,271.436188 322.164398,279.146698 
	C321.816650,320.469177 322.000397,361.796112 322.000519,403.121521 
	C322.000519,405.031494 322.000519,406.941467 322.000519,408.719910 
	C370.404266,408.719910 417.999054,408.719910 465.674408,408.719910 
	C465.674408,327.398193 465.674408,246.356949 465.674408,164.999863 
	C331.733398,164.999863 198.117859,164.999863 63.504078,164.999863 
M296.002075,336.500000 
	C296.002075,321.412842 296.002075,306.325684 296.002075,291.391846 
	C269.594238,291.391846 243.876740,291.391846 218.256958,291.391846 
	C218.256958,330.715149 218.256958,369.643860 218.256958,408.695251 
	C244.233414,408.695251 269.949707,408.695251 296.002075,408.695251 
	C296.002075,384.761322 296.002075,361.130676 296.002075,336.500000 
z"/>
<path fill="#F44336" opacity="1.000000" stroke="none" 
	d="
M513.000000,137.599945 
	C342.641754,138.000092 172.283524,138.000198 1.462638,138.000153 
	C1.000000,136.933380 1.000000,135.866745 1.243439,134.739960 
	C1.880430,134.373306 2.413120,134.148468 2.647704,133.748688 
	C19.462446,105.092834 36.329468,76.466927 52.938808,47.692295 
	C54.770615,44.518814 56.791546,43.947395 60.006268,43.948860 
	C191.279663,44.008583 322.553070,43.999893 453.826477,44.000011 
	C454.659424,44.000011 455.604065,43.748741 456.301483,44.056633 
	C457.648285,44.651199 459.373688,45.254467 460.044922,46.386265 
	C476.995667,74.965500 493.822113,103.618408 510.724030,132.226715 
	C511.179169,132.997116 512.228027,133.416794 513.000000,134.000000 
	C513.000000,135.066620 513.000000,136.133255 513.000000,137.599945 
z"/>
<path fill="#000000" opacity="1.000000" stroke="none" 
	d="
M513.000000,133.531342 
	C512.228027,133.416794 511.179169,132.997116 510.724030,132.226715 
	C493.822113,103.618408 476.995667,74.965500 460.044922,46.386265 
	C459.373688,45.254467 457.648285,44.651199 456.301483,44.056633 
	C455.604065,43.748741 454.659424,44.000011 453.826477,44.000011 
	C322.553070,43.999893 191.279663,44.008583 60.006268,43.948860 
	C56.791546,43.947395 54.770615,44.518814 52.938808,47.692295 
	C36.329468,76.466927 19.462446,105.092834 2.647704,133.748688 
	C2.413120,134.148468 1.880430,134.373306 1.243439,134.339905 
	C1.000000,89.691589 1.000000,45.383186 1.000000,1.037390 
	C171.545776,1.037390 342.091553,1.037390 513.000000,1.037390 
	C513.000000,45.020229 513.000000,89.041458 513.000000,133.531342 
z"/>
<path fill="#000000" opacity="1.000000" stroke="none" 
	d="
M513.000000,462.000000 
	C513.000000,478.987885 513.000000,495.975739 513.000000,512.957275 
	C342.333313,512.950928 171.666656,512.950928 1.000000,512.950928 
	C1.000000,496.247009 1.000000,479.592163 1.468657,462.468597 
	C172.291550,461.999908 342.645782,461.999969 513.000000,462.000000 
z"/>
<path fill="#F44336" opacity="1.000000" stroke="none" 
	d="
M513.000000,461.531342 
	C342.645782,461.999969 172.291550,461.999908 1.468657,461.999939 
	C1.000000,453.312439 1.000000,444.624878 1.000000,435.468658 
	C171.354233,435.000031 341.708466,435.000092 512.531372,435.000061 
	C513.000000,443.687561 513.000000,452.375122 513.000000,461.531342 
z"/>
<path fill="#F44336" opacity="1.000000" stroke="none" 
	d="
M64.003197,164.999863 
	C198.117859,164.999863 331.733398,164.999863 465.674408,164.999863 
	C465.674408,246.356949 465.674408,327.398193 465.674408,408.719910 
	C417.999054,408.719910 370.404266,408.719910 322.000519,408.719910 
	C322.000519,406.941467 322.000519,405.031494 322.000519,403.121521 
	C322.000397,361.796112 321.816650,320.469177 322.164398,279.146698 
	C322.229279,271.436188 315.261627,264.762543 308.022156,264.839294 
	C274.032501,265.199524 240.034668,265.206116 206.045197,264.837372 
	C198.613800,264.756775 191.776093,271.562775 191.837753,279.079163 
	C192.176682,320.401764 191.999405,361.728607 191.999283,403.054016 
	C191.999283,404.854370 191.999283,406.654694 191.999283,408.719360 
	C143.998672,408.719360 96.403908,408.719360 48.404404,408.719360 
	C48.404404,327.800781 48.404404,246.759247 48.404404,164.999863 
	C53.320328,164.999863 58.412205,164.999863 64.003197,164.999863 
z"/>
<path fill="#F44336" opacity="1.000000" stroke="none" 
	d="
M296.002075,337.000000 
	C296.002075,361.130676 296.002075,384.761322 296.002075,408.695251 
	C269.949707,408.695251 244.233414,408.695251 218.256958,408.695251 
	C218.256958,369.643860 218.256958,330.715149 218.256958,291.391846 
	C243.876740,291.391846 269.594238,291.391846 296.002075,291.391846 
	C296.002075,306.325684 296.002075,321.412842 296.002075,337.000000 
z"/>
</svg>