<svg version="1.1" id="Layer_1" xmlns="http://www.w3.org/2000/svg" xmlns:xlink="http://www.w3.org/1999/xlink" x="0px" y="0px"
	 width="100%" viewBox="0 0 422 130" enable-background="new 0 0 422 130" xml:space="preserve">
<path fill="#FFFEFE" opacity="1.000000" stroke="none" 
	d="
M143.000000,1.000000 
	C236.296280,1.000000 329.592560,1.000000 422.944427,1.000000 
	C422.944427,44.279022 422.944427,87.558136 422.944427,130.918625 
	C282.443481,130.918625 141.886871,130.918625 1.165138,130.918625 
	C1.165138,87.667091 1.165138,44.333641 1.165138,1.000000 
	C47.432842,1.000000 93.747765,1.000000 140.425781,1.318247 
	C127.478951,14.949366 114.221199,28.315224 100.811317,41.526661 
	C98.373306,43.928600 97.291237,46.326996 97.348450,49.801998 
	C97.710457,71.789436 97.846962,93.780540 98.086113,115.770142 
	C98.099823,117.030685 98.361656,118.288536 98.542755,119.846481 
	C128.146912,119.846481 157.390579,119.846481 186.981430,119.846481 
	C186.870377,118.221802 186.776154,116.843338 186.639267,114.840530 
	C158.713608,114.840530 131.142349,114.840530 103.334404,114.840530 
	C103.233330,112.571823 103.109390,110.941933 103.096146,109.311127 
	C102.987930,95.983528 102.885628,82.655830 102.812386,69.327995 
	C102.772125,62.003559 100.760277,53.838120 103.347458,47.587505 
	C106.004768,41.167458 113.133591,36.571079 118.390312,31.260506 
	C126.078568,23.493505 133.842377,15.801314 141.997559,7.654078 
	C155.661407,21.427891 168.996109,34.869896 182.582550,48.565674 
	C183.943298,47.316021 184.998932,46.346561 185.897461,45.521393 
	C185.458633,44.622574 185.381912,44.268089 185.166382,44.052181 
	C172.219070,31.082668 159.248596,18.136240 146.321533,5.146600 
	C145.079529,3.898582 144.100891,2.388450 143.000000,1.000000 
M262.075745,98.068619 
	C262.075745,93.680969 262.075745,89.293320 262.075745,84.915100 
	C264.658997,84.915100 266.543701,84.915100 268.985809,84.915100 
	C268.985809,89.837730 268.985809,94.419838 268.977844,99.772041 
	C270.757874,100.116730 272.537903,100.461411 274.632080,100.866928 
	C274.632080,87.878937 274.632080,75.712677 274.632080,62.084522 
	C272.265045,63.309650 270.632172,64.154778 268.865601,65.918869 
	C268.584503,70.357063 268.303436,74.795258 267.179688,79.100327 
	C265.480957,79.003288 263.782257,78.906250 262.097809,77.899712 
	C262.097412,73.969543 262.230499,70.031601 262.002258,66.114716 
	C261.945587,65.142006 260.719421,64.237450 259.201324,63.109482 
	C258.176117,63.799053 256.268463,64.474663 256.257324,65.180267 
	C256.072449,76.864822 256.125702,88.553139 256.125702,101.530945 
	C258.704590,100.410912 260.334625,99.702972 262.075745,98.068619 
M125.396675,63.137249 
	C125.050797,63.770222 124.704918,64.403191 124.213913,65.957596 
	C124.256805,76.958603 124.299698,87.959610 124.254128,99.659180 
	C126.158401,99.437920 128.062683,99.216660 130.077652,98.075104 
	C130.077652,94.344734 130.077652,90.614357 130.077652,86.870003 
	C131.387253,86.698006 132.031006,86.602760 132.677338,86.530220 
	C139.804382,85.730354 141.500031,83.720795 141.025482,76.681915 
	C140.958908,75.694473 140.955093,74.695259 141.018875,73.707741 
	C141.547394,65.525787 139.322281,63.161819 130.979202,63.133263 
	C129.329468,63.127613 127.679375,63.227993 125.396675,63.137249 
M299.214294,69.180954 
	C297.262543,63.944092 294.352417,62.154999 288.973877,62.885372 
	C284.442047,63.500763 281.974304,66.331413 281.871765,71.585144 
	C281.735443,78.570786 281.712708,85.565010 281.901703,92.548492 
	C282.038330,97.595413 284.766205,100.394836 289.412964,100.898262 
	C294.703156,101.471390 297.705170,99.362320 299.550018,93.449883 
	C299.517273,92.280396 299.484558,91.110916 299.640503,89.034103 
	C299.575836,83.709190 299.511200,78.384285 299.705841,72.448486 
	C299.545227,71.609207 299.384613,70.769928 299.214294,69.180954 
M184.390961,63.142242 
	C184.045029,63.768990 183.699097,64.395737 183.199631,65.944489 
	C183.245148,76.955055 183.290665,87.965614 183.169357,99.465294 
	C183.813324,99.744156 184.457306,100.023026 186.002594,100.456291 
	C187.823105,100.465088 189.644302,100.510445 191.464005,100.476227 
	C198.649734,100.341133 201.046417,98.073822 201.256546,91.011757 
	C201.379562,86.877464 201.298523,82.736938 201.299133,78.599213 
	C201.301300,63.755402 199.956039,62.490726 184.390961,63.142242 
M242.644165,95.967079 
	C243.617844,100.021782 245.738251,101.843689 250.184372,99.831444 
	C248.218277,94.842728 246.559494,89.963882 244.385376,85.326653 
	C242.606400,81.532265 242.480927,78.275597 244.773010,74.594818 
	C246.906174,71.169258 248.353149,67.316376 250.121277,63.611710 
	C245.752594,62.103909 243.818787,63.865448 242.474503,67.340439 
	C241.141617,70.785934 239.330460,74.046410 237.729065,77.388039 
	C237.374527,77.284180 237.019974,77.180328 236.665436,77.076477 
	C236.665436,72.493263 236.665436,67.910057 236.665436,63.070297 
	C234.589737,63.167889 232.991440,63.243034 231.340881,63.320637 
	C231.340881,75.871147 231.340881,88.072769 231.340881,100.302162 
	C233.298248,100.302162 234.896088,100.302162 236.621033,100.302162 
	C236.916458,95.695236 237.194550,91.358315 237.472656,87.021400 
	C238.026932,87.014114 238.581223,87.006828 239.135513,86.999542 
	C240.194580,89.754524 241.253662,92.509506 242.644165,95.967079 
M153.103027,89.128067 
	C153.111649,83.311096 152.932159,77.482887 153.278275,71.686066 
	C153.352737,70.438988 155.325241,69.305222 156.423416,68.119255 
	C157.332321,69.301765 158.491058,70.374626 159.073029,71.700630 
	C159.560425,72.811119 159.374069,74.217300 159.515671,75.830070 
	C161.386124,75.735519 162.949783,75.656479 164.632492,75.571419 
	C164.715729,74.356056 164.830612,73.545006 164.817322,72.736061 
	C164.708252,66.097740 161.973145,62.936958 156.278702,62.830921 
	C150.258728,62.718826 147.328064,65.807426 147.239792,72.723579 
	C147.152863,79.534355 147.054382,86.360817 147.415833,93.156197 
	C147.676758,98.061371 150.936707,100.917023 155.345093,101.021332 
	C160.098679,101.133812 164.173004,98.082474 164.619934,93.362968 
	C165.035706,88.972466 164.708694,84.511620 164.708694,80.058464 
	C161.765350,80.058464 159.349197,80.058464 156.705551,80.058464 
	C155.733307,85.405006 164.423431,92.136490 153.899979,96.304352 
	C153.588882,93.853867 153.346405,91.944000 153.103027,89.128067 
M218.377289,63.100548 
	C215.100143,63.100548 211.823013,63.100548 208.381607,63.100548 
	C208.381607,75.816742 208.381607,87.987785 208.381607,100.137016 
	C223.852219,101.105873 224.754623,101.334412 223.649002,95.123199 
	C220.667480,95.123199 217.590652,95.123199 214.389282,95.123199 
	C214.389282,91.279503 214.389282,87.931122 214.389282,84.453384 
	C217.042053,84.317429 219.340164,84.199654 221.747116,84.076294 
	C221.747116,82.348335 221.747116,80.788818 221.747116,78.703323 
	C219.048553,78.703323 216.658630,78.703323 214.343567,78.703323 
	C214.343567,75.080299 214.343567,71.992928 214.343567,69.344734 
	C217.603851,67.016327 224.529831,71.881073 223.965439,63.315899 
	C222.252960,63.236420 220.789398,63.168495 218.377289,63.100548 
z"/>
<path fill="#FF3939" opacity="1.000000" stroke="none" 
	d="
M142.666672,1.000000 
	C144.100891,2.388450 145.079529,3.898582 146.321533,5.146600 
	C159.248596,18.136240 172.219070,31.082668 185.166382,44.052181 
	C185.381912,44.268089 185.458633,44.622574 185.897461,45.521393 
	C184.998932,46.346561 183.943298,47.316021 182.582550,48.565674 
	C168.996109,34.869896 155.661407,21.427891 141.997559,7.654078 
	C133.842377,15.801314 126.078568,23.493505 118.390312,31.260506 
	C113.133591,36.571079 106.004768,41.167458 103.347458,47.587505 
	C100.760277,53.838120 102.772125,62.003559 102.812386,69.327995 
	C102.885628,82.655830 102.987930,95.983528 103.096146,109.311127 
	C103.109390,110.941933 103.233330,112.571823 103.334404,114.840530 
	C131.142349,114.840530 158.713608,114.840530 186.639267,114.840530 
	C186.776154,116.843338 186.870377,118.221802 186.981430,119.846481 
	C157.390579,119.846481 128.146912,119.846481 98.542755,119.846481 
	C98.361656,118.288536 98.099823,117.030685 98.086113,115.770142 
	C97.846962,93.780540 97.710457,71.789436 97.348450,49.801998 
	C97.291237,46.326996 98.373306,43.928600 100.811317,41.526661 
	C114.221199,28.315224 127.478951,14.949366 140.894440,1.318247 
	C141.444443,1.000000 141.888901,1.000000 142.666672,1.000000 
z"/>
<path fill="#FF3939" opacity="1.000000" stroke="none" 
	d="
M183.336182,98.976181 
	C183.290665,87.965614 183.245148,76.955055 183.539886,65.432320 
	C184.259506,64.371452 184.638870,63.822742 185.018234,63.274040 
	C199.956039,62.490726 201.301300,63.755402 201.299133,78.599213 
	C201.298523,82.736938 201.379562,86.877464 201.256546,91.011757 
	C201.046417,98.073822 198.649734,100.341133 191.464005,100.476227 
	C189.644302,100.510445 187.823105,100.465088 185.425430,100.113541 
	C184.344238,99.505928 183.840210,99.241051 183.336182,98.976181 
M189.088516,86.440186 
	C189.088516,89.230934 189.088516,92.021690 189.088516,94.665894 
	C193.814041,95.933327 195.503387,94.300186 195.373169,90.042336 
	C195.205185,84.549217 195.225159,79.044334 195.365936,73.549698 
	C195.476486,69.234627 193.682037,67.763802 189.088562,69.137993 
	C189.088562,74.525543 189.088562,79.990501 189.088516,86.440186 
z"/>
<path fill="#FF3939" opacity="1.000000" stroke="none" 
	d="
M242.478455,95.615784 
	C241.253662,92.509506 240.194580,89.754524 239.135513,86.999542 
	C238.581223,87.006828 238.026932,87.014114 237.472656,87.021400 
	C237.194550,91.358315 236.916458,95.695236 236.621033,100.302162 
	C234.896088,100.302162 233.298248,100.302162 231.340881,100.302162 
	C231.340881,88.072769 231.340881,75.871147 231.340881,63.320637 
	C232.991440,63.243034 234.589737,63.167889 236.665436,63.070297 
	C236.665436,67.910057 236.665436,72.493263 236.665436,77.076477 
	C237.019974,77.180328 237.374527,77.284180 237.729065,77.388039 
	C239.330460,74.046410 241.141617,70.785934 242.474503,67.340439 
	C243.818787,63.865448 245.752594,62.103909 250.121277,63.611710 
	C248.353149,67.316376 246.906174,71.169258 244.773010,74.594818 
	C242.480927,78.275597 242.606400,81.532265 244.385376,85.326653 
	C246.559494,89.963882 248.218277,94.842728 250.184372,99.831444 
	C245.738251,101.843689 243.617844,100.021782 242.478455,95.615784 
z"/>
<path fill="#FF3939" opacity="1.000000" stroke="none" 
	d="
M299.164642,94.047211 
	C297.705170,99.362320 294.703156,101.471390 289.412964,100.898262 
	C284.766205,100.394836 282.038330,97.595413 281.901703,92.548492 
	C281.712708,85.565010 281.735443,78.570786 281.871765,71.585144 
	C281.974304,66.331413 284.442047,63.500763 288.973877,62.885372 
	C294.352417,62.154999 297.262543,63.944092 298.965240,69.719971 
	C298.959625,71.192451 299.203064,72.125916 299.446533,73.059372 
	C299.511200,78.384285 299.575836,83.709190 299.260132,89.617912 
	C298.974731,91.483551 299.069702,92.765381 299.164642,94.047211 
M287.971863,93.668411 
	C289.338928,94.171906 290.913483,95.325218 292.008270,94.975723 
	C292.903168,94.690025 293.687714,92.624001 293.723572,91.325249 
	C293.897461,85.024109 293.994995,78.705322 293.660828,72.417168 
	C293.582214,70.937759 291.725769,69.552826 290.687195,68.124435 
	C289.696136,69.555771 287.910309,70.954453 287.849945,72.424004 
	C287.571014,79.214043 287.772095,86.023804 287.971863,93.668411 
z"/>
<path fill="#FF3131" opacity="1.000000" stroke="none" 
	d="
M153.103485,89.581100 
	C153.346405,91.944000 153.588882,93.853867 153.899979,96.304352 
	C164.423431,92.136490 155.733307,85.405006 156.705551,80.058464 
	C159.349197,80.058464 161.765350,80.058464 164.708694,80.058464 
	C164.708694,84.511620 165.035706,88.972466 164.619934,93.362968 
	C164.173004,98.082474 160.098679,101.133812 155.345093,101.021332 
	C150.936707,100.917023 147.676758,98.061371 147.415833,93.156197 
	C147.054382,86.360817 147.152863,79.534355 147.239792,72.723579 
	C147.328064,65.807426 150.258728,62.718826 156.278702,62.830921 
	C161.973145,62.936958 164.708252,66.097740 164.817322,72.736061 
	C164.830612,73.545006 164.715729,74.356056 164.632492,75.571419 
	C162.949783,75.656479 161.386124,75.735519 159.515671,75.830070 
	C159.374069,74.217300 159.560425,72.811119 159.073029,71.700630 
	C158.491058,70.374626 157.332321,69.301765 156.423416,68.119263 
	C155.325241,69.305222 153.352737,70.438988 153.278275,71.686066 
	C152.932159,77.482887 153.111649,83.311096 153.103485,89.581100 
z"/>
<path fill="#FF3B3B" opacity="1.000000" stroke="none" 
	d="
M218.851562,63.100559 
	C220.789398,63.168495 222.252960,63.236420 223.965439,63.315899 
	C224.529831,71.881073 217.603851,67.016327 214.343567,69.344734 
	C214.343567,71.992928 214.343567,75.080299 214.343567,78.703323 
	C216.658630,78.703323 219.048553,78.703323 221.747116,78.703323 
	C221.747116,80.788818 221.747116,82.348335 221.747116,84.076294 
	C219.340164,84.199654 217.042053,84.317429 214.389282,84.453384 
	C214.389282,87.931122 214.389282,91.279503 214.389282,95.123199 
	C217.590652,95.123199 220.667480,95.123199 223.649002,95.123199 
	C224.754623,101.334412 223.852219,101.105873 208.381607,100.137016 
	C208.381607,87.987785 208.381607,75.816742 208.381607,63.100548 
	C211.823013,63.100548 215.100143,63.100548 218.851562,63.100559 
z"/>
<path fill="#FF3434" opacity="1.000000" stroke="none" 
	d="
M124.342590,98.960617 
	C124.299698,87.959610 124.256805,76.958603 124.548843,65.443703 
	C125.265663,64.379692 125.647552,63.829582 126.029449,63.279472 
	C127.679375,63.227993 129.329468,63.127613 130.979202,63.133263 
	C139.322281,63.161819 141.547394,65.525787 141.018875,73.707741 
	C140.955093,74.695259 140.958908,75.694473 141.025482,76.681915 
	C141.500031,83.720795 139.804382,85.730354 132.677338,86.530220 
	C132.031006,86.602760 131.387253,86.698006 130.077652,86.870003 
	C130.077652,90.614357 130.077652,94.344734 129.619659,98.550995 
	C127.555321,99.004791 125.948952,98.982704 124.342590,98.960617 
M135.884018,74.595573 
	C136.028534,70.837067 135.784149,67.455353 130.261200,68.836700 
	C130.261200,72.880745 130.261200,76.764771 130.261200,80.623253 
	C135.487854,81.235909 135.584167,81.143692 135.884018,74.595573 
z"/>
<path fill="#FF3333" opacity="1.000000" stroke="none" 
	d="
M268.022339,79.233452 
	C268.303436,74.795258 268.584503,70.357063 269.357117,65.451538 
	C272.692719,64.708733 273.071503,66.407700 273.054688,68.717346 
	C272.990601,77.528168 272.924957,86.341637 273.085205,95.150024 
	C273.142212,98.281456 271.954376,99.420090 268.985809,99.001945 
	C268.985809,94.419838 268.985809,89.837730 268.985809,84.915100 
	C266.543701,84.915100 264.658997,84.915100 262.075745,84.915100 
	C262.075745,89.293320 262.075745,93.680969 261.597504,98.544693 
	C257.800568,99.318726 257.947937,97.062584 257.955353,94.814583 
	C257.982025,86.731934 257.808807,78.644279 258.059845,70.569359 
	C258.135742,68.128693 259.342194,65.723175 260.030823,63.301559 
	C260.719421,64.237450 261.945587,65.142006 262.002258,66.114716 
	C262.230499,70.031601 262.097412,73.969543 262.122986,78.730255 
	C264.227264,81.624367 266.216400,82.072701 268.022339,79.233452 
z"/>
<path fill="#FF4545" opacity="1.000000" stroke="none" 
	d="
M268.981812,99.386993 
	C271.954376,99.420090 273.142212,98.281456 273.085205,95.150024 
	C272.924957,86.341637 272.990601,77.528168 273.054688,68.717346 
	C273.071503,66.407700 272.692719,64.708733 269.423981,64.992058 
	C270.632172,64.154778 272.265045,63.309650 274.632080,62.084522 
	C274.632080,75.712677 274.632080,87.878937 274.632080,100.866928 
	C272.537903,100.461411 270.757874,100.116730 268.981812,99.386993 
z"/>
<path fill="#FF4747" opacity="1.000000" stroke="none" 
	d="
M259.616089,63.205521 
	C259.342194,65.723175 258.135742,68.128693 258.059845,70.569359 
	C257.808807,78.644279 257.982025,86.731934 257.955353,94.814583 
	C257.947937,97.062584 257.800568,99.318726 261.541992,99.007904 
	C260.334625,99.702972 258.704590,100.410912 256.125702,101.530945 
	C256.125702,88.553139 256.072449,76.864822 256.257324,65.180267 
	C256.268463,64.474663 258.176117,63.799053 259.616089,63.205521 
z"/>
<path fill="#FF4545" opacity="1.000000" stroke="none" 
	d="
M267.601013,79.166885 
	C266.216400,82.072701 264.227264,81.624367 262.115845,79.184998 
	C263.782257,78.906250 265.480957,79.003288 267.601013,79.166885 
z"/>
<path fill="#FF4848" opacity="1.000000" stroke="none" 
	d="
M124.298355,99.309898 
	C125.948952,98.982704 127.555321,99.004791 129.564316,99.011147 
	C128.062683,99.216660 126.158401,99.437920 124.298355,99.309898 
z"/>
<path fill="#FF5252" opacity="1.000000" stroke="none" 
	d="
M299.357330,93.748550 
	C299.069702,92.765381 298.974731,91.483551 299.165802,90.071579 
	C299.484558,91.110916 299.517273,92.280396 299.357330,93.748550 
z"/>
<path fill="#FF5252" opacity="1.000000" stroke="none" 
	d="
M299.576172,72.753937 
	C299.203064,72.125916 298.959625,71.192451 298.970093,70.094818 
	C299.384613,70.769928 299.545227,71.609207 299.576172,72.753937 
z"/>
<path fill="#FF4545" opacity="1.000000" stroke="none" 
	d="
M184.704590,63.208141 
	C184.638870,63.822742 184.259506,64.371452 183.616669,64.971313 
	C183.699097,64.395737 184.045029,63.768990 184.704590,63.208141 
z"/>
<path fill="#FF4848" opacity="1.000000" stroke="none" 
	d="
M125.713058,63.208359 
	C125.647552,63.829582 125.265663,64.379692 124.621399,64.982986 
	C124.704918,64.403191 125.050797,63.770222 125.713058,63.208359 
z"/>
<path fill="#FF4545" opacity="1.000000" stroke="none" 
	d="
M183.252777,99.220734 
	C183.840210,99.241051 184.344238,99.505928 184.974762,100.036346 
	C184.457306,100.023026 183.813324,99.744156 183.252777,99.220734 
z"/>
<path fill="#FFF6F6" opacity="1.000000" stroke="none" 
	d="
M189.088531,85.947823 
	C189.088562,79.990501 189.088562,74.525543 189.088562,69.137993 
	C193.682037,67.763802 195.476486,69.234627 195.365936,73.549698 
	C195.225159,79.044334 195.205185,84.549217 195.373169,90.042336 
	C195.503387,94.300186 193.814041,95.933327 189.088516,94.665894 
	C189.088516,92.021690 189.088516,89.230934 189.088531,85.947823 
z"/>
<path fill="#FFF2F2" opacity="1.000000" stroke="none" 
	d="
M287.886475,93.247452 
	C287.772095,86.023804 287.571014,79.214043 287.849945,72.424004 
	C287.910309,70.954453 289.696136,69.555771 290.687195,68.124435 
	C291.725769,69.552826 293.582214,70.937759 293.660828,72.417168 
	C293.994995,78.705322 293.897461,85.024109 293.723572,91.325249 
	C293.687714,92.624001 292.903168,94.690025 292.008270,94.975723 
	C290.913483,95.325218 289.338928,94.171906 287.886475,93.247452 
z"/>
<path fill="#FFECEC" opacity="1.000000" stroke="none" 
	d="
M135.884140,75.033020 
	C135.584167,81.143692 135.487854,81.235909 130.261200,80.623253 
	C130.261200,76.764771 130.261200,72.880745 130.261200,68.836700 
	C135.784149,67.455353 136.028534,70.837067 135.884140,75.033020 
z"/>
</svg>