<svg version="1.1" id="Layer_1" xmlns="http://www.w3.org/2000/svg" xmlns:xlink="http://www.w3.org/1999/xlink" x="0px" y="0px"
	 width="100%" viewBox="0 0 422 130" enable-background="new 0 0 422 130" xml:space="preserve">
<path fill="none" opacity="1.000000" stroke="#000000" stroke-linecap="round" stroke-linejoin="round" stroke-width="6.000000"
	d="
M182.500000,45.000004 
	C170.166656,32.666672 157.746674,20.417940 145.562973,7.938531 
	C142.638916,4.943518 140.859558,4.939906 137.936783,7.938382 
	C126.256638,19.921036 114.350395,31.683836 102.479622,43.479492 
	C100.895660,45.053425 99.914825,46.581642 99.943916,49.000675 
	C100.206444,70.832855 100.328087,92.666710 100.519981,114.499825 
	C100.527321,115.334930 100.828423,116.167442 101.090881,117.500000 
	C128.831345,117.500000 156.665665,117.500000 184.500000,117.500000 
"/>
<path fill="none" opacity="1.000000" stroke="#000000" stroke-linecap="round" stroke-linejoin="round" stroke-width="6.000000"
	d="
M162.000000,73.000000 
	C161.001770,66.250069 160.150223,65.355637 155.499222,65.468094 
	C152.402756,65.542969 150.783722,66.940475 150.495514,69.999580 
	C149.788849,77.500862 149.794434,84.984032 150.419144,92.506714 
	C150.732971,96.286011 152.641174,98.383278 155.999191,98.363480 
	C159.314941,98.343933 161.647003,96.713127 161.675034,92.501167 
	C161.690201,90.220650 161.674240,87.813515 162.030136,85.504646 
	C162.354645,83.399277 160.832001,83.084450 159.500000,82.500000 
"/>
<path fill="none" opacity="1.000000" stroke="#000000" stroke-linecap="round" stroke-linejoin="round" stroke-width="7.000000"
	d="
M128.500000,83.500000 
	C130.000000,83.500000 131.501999,83.449921 132.999603,83.509789 
	C136.850647,83.663719 138.656174,81.850883 138.511810,77.999557 
	C138.443176,76.168793 138.513245,74.333221 138.497437,72.500023 
	C138.455078,67.585686 136.334610,65.563408 131.500626,65.467941 
	C128.264786,65.404045 126.799286,66.334732 126.910728,70.002708 
	C127.183922,78.994415 127.000000,88.000000 127.000000,97.000000 
"/>
<path fill="none" opacity="1.000000" stroke="#000000" stroke-linecap="round" stroke-linejoin="round" stroke-width="7.000000"
	d="
M221.500000,65.500000 
	C210.985809,65.500000 210.988327,65.500000 210.998962,76.000000 
	C211.004700,81.666656 211.234726,87.346565 210.916306,92.995285 
	C210.709045,96.671898 212.264938,97.681938 215.500946,97.518639 
	C217.495865,97.417976 219.500000,97.500000 221.500000,97.500000 
"/>
<path fill="none" opacity="1.000000" stroke="#000000" stroke-linecap="round" stroke-linejoin="round" stroke-width="5.000000"
	d="
M249.500000,64.000000 
	C247.603378,64.248955 246.302673,65.507050 245.547241,67.023537 
	C243.087769,71.960693 240.833344,77.000000 238.500000,82.000000 
"/>
<path fill="none" opacity="1.000000" stroke="#000000" stroke-linecap="round" stroke-linejoin="round" stroke-width="6.000000"
	d="
M236.000000,82.500000 
	C239.512878,81.027382 240.228363,83.597298 241.580811,85.953613 
	C243.755478,89.742393 244.003174,94.377945 247.000000,97.750000 
"/>
<path fill="none" opacity="1.000000" stroke="#000000" stroke-linecap="round" stroke-linejoin="round" stroke-width="7.000000"
	d="
M234.000000,66.000000 
	C233.959763,76.333336 235.060959,86.666664 234.000000,97.000000 
"/>
<path fill="none" opacity="1.000000" stroke="#000000" stroke-linecap="round" stroke-linejoin="round" stroke-width="7.000000"
	d="
M259.000000,66.000000 
	C259.000000,76.333336 259.000000,86.666664 259.000000,97.000000 
"/>
<path fill="none" opacity="1.000000" stroke="#000000" stroke-linecap="round" stroke-linejoin="round" stroke-width="7.000000"
	d="
M272.000000,66.000000 
	C272.000000,76.333336 272.000000,86.666664 272.000000,97.000000 
"/>
<path fill="none" opacity="1.000000" stroke="#000000" stroke-linecap="round" stroke-linejoin="round" stroke-width="6.000000"
	d="
M289.000000,65.500000 
	C285.366089,66.966339 284.379913,69.827164 284.463257,73.500832 
	C284.599304,79.497749 284.535950,85.500298 284.486511,91.499886 
	C284.456879,95.097931 286.380005,97.531349 289.532990,98.377037 
	C292.240112,99.103127 295.455902,97.794685 295.850159,94.979019 
	C297.078979,86.202904 297.081268,77.296989 295.854126,68.520401 
	C295.443878,65.586464 292.268951,65.195068 289.500000,65.500000 
"/>
<path fill="none" opacity="1.000000" stroke="#000000" stroke-linecap="round" stroke-linejoin="round" stroke-width="6.000000"
	d="
M188.500000,65.500000 
	C185.636429,65.872086 185.995239,68.025520 185.997147,70.000000 
	C186.004288,77.333328 186.045547,84.667084 185.977524,91.999794 
	C185.950394,94.923256 185.557922,97.567245 189.999542,97.590057 
	C195.761536,97.619659 198.208084,96.721504 198.407379,92.495628 
	C198.744629,85.344872 198.764771,78.153122 198.399170,71.005157 
	C198.185196,66.821831 195.409668,65.500000 189.000000,65.500000 
"/>
</svg>